<svg xmlns="http://www.w3.org/2000/svg" viewBox="0 0 800 450" role="img" aria-label="Airfoil vortex source panel method with pressure distribution">
  <defs>
    <linearGradient id="bgAir" x1="0" y1="0" x2="0" y2="1">
      <stop offset="0" stop-color="#eef4ff"/>
      <stop offset="1" stop-color="#ffffff"/>
    </linearGradient>
  </defs>
  <rect width="800" height="450" fill="url(#bgAir)"/>
  <g stroke="#cbd5e1" stroke-width="1" opacity="0.8">
    <line x1="0" y1="150" x2="800" y2="150"/><line x1="0" y1="300" x2="800" y2="300"/>
  </g>
  <g stroke="#93c5fd" stroke-width="2" fill="none" opacity="0.75">
    <path d="M40 110 C 260 108, 520 96, 760 118"/>
    <path d="M40 150 C 260 150, 520 120, 760 160"/>
    <path d="M40 300 C 260 300, 520 322, 760 300"/>
    <path d="M40 340 C 260 340, 520 352, 760 340"/>
  </g>
  <path d="M150 240 C 300 150, 520 175, 660 232 C 520 250, 320 258, 150 240 Z" fill="#1d4ed8" stroke="#1e3a8a" stroke-width="2"/>
  <g stroke="#bfdbfe" stroke-width="1.5">
    <line x1="150" y1="240" x2="150" y2="240"/>
    <line x1="205" y1="205" x2="205" y2="252"/><line x1="270" y1="184" x2="270" y2="256"/>
    <line x1="340" y1="172" x2="340" y2="257"/><line x1="420" y1="168" x2="420" y2="256"/>
    <line x1="500" y1="176" x2="500" y2="252"/><line x1="580" y1="192" x2="580" y2="246"/>
  </g>
  <g fill="#f59e0b">
    <circle cx="205" cy="205" r="3.5"/><circle cx="270" cy="184" r="3.5"/><circle cx="340" cy="172" r="3.5"/>
    <circle cx="420" cy="168" r="3.5"/><circle cx="500" cy="176" r="3.5"/><circle cx="580" cy="192" r="3.5"/>
  </g>
  <path d="M150 240 L 205 205 L 270 184 L 340 172 L 420 168 L 500 176 L 580 192 L 660 232" fill="none" stroke="#f59e0b" stroke-width="2.5"/>
  <text x="400" y="415" text-anchor="middle" font-family="'JetBrains Mono',monospace" font-size="22" fill="#1e3a8a">VORTEX SOURCE PANEL METHOD</text>
</svg>
